<svg xmlns="http://www.w3.org/2000/svg" width="100" height="16" fill="none"><path fill="#000" d="m31.594.065-7.012 15.9h-5.26L12.34.065h4.071l5.556 12.57L27.494.065h4.1Zm.914 15.87V.035h3.773v15.9h-3.773Zm11.239-3.06h13.192v3.06H43.153c-3.298 0-5.973-2.7-5.973-6.03v-3.81c0-3.33 2.675-6.03 5.973-6.03h10.636a2.74 2.74 0 0 1 2.734 2.76v1.17c0 .99-.535 1.92-1.367 2.4-2.436 1.44-4.991 2.88-7.22 4.14l-4.19 2.34Zm-1.724-2.49c1.278-.75 2.675-1.53 4.398-2.52 1.396-.78 2.852-1.62 4.338-2.46l4.011-2.28H43.153c-1.635 0-2.942 1.35-2.942 2.97v5.31l1.813-1.02ZM82.354.065l-5.08 15.87H72.49l-3.03-9.51-3.031 9.51h-4.814L56.565.065h3.95l3.507 11.01L67.528.065h3.863l3.476 11.01L78.403.065h3.951Zm12.892 6.21c2.615 0 4.754 2.16 4.754 4.83v.03c0 2.67-2.14 4.83-4.754 4.83H83.242v-3.45h12.004c.743 0 1.367-.63 1.367-1.38v-.03c0-.78-.624-1.38-1.367-1.38h-8.973c-2.644 0-4.754-2.16-4.754-4.83v-.03c0-2.64 2.11-4.8 4.754-4.8h11.915v3.42H86.273c-.743 0-1.367.63-1.367 1.38v.03c0 .78.624 1.38 1.367 1.38h8.973ZM0 .035v15.93L12.34 8 0 .035Z"/></svg>